<svg height="512" viewBox="0 0 64 64" width="512" xmlns="http://www.w3.org/2000/svg"><path d="m30.72 21.27-16.06 34.44a1 1 0 0 1 -1.33.48l-3.62-1.69a1 1 0 0 1 -.49-1.33l16.06-34.44z" fill="#cd2a00"/><path d="m54.78 53.17a1 1 0 0 1 -.49 1.33l-3.62 1.69a1 1 0 0 1 -1.33-.48l-16.06-34.44 5.44-2.54z" fill="#cd2a00"/><circle cx="32" cy="19" fill="#ff9811" r="8"/><rect fill="#e0e0e2" height="8" rx="1" width="4" x="30" y="35"/><circle cx="32" cy="19" fill="#ff5023" r="3"/><path d="m28 4h8v4h-8z" fill="#ff9811"/><path d="m13.33 56.19-2.11 4.53a4 4 0 0 1 -1.94-5.31l.43-.91z" fill="#acabb1"/><path d="m54.72 55.41a4 4 0 0 1 -1.94 5.31l-2.11-4.53 3.62-1.69z" fill="#acabb1"/><path d="m32 23a4 4 0 1 0 -4-4 4 4 0 0 0 4 4zm0-6a2 2 0 1 1 -2 2 2 2 0 0 1 2-2z"/><path d="m55.62 54.98-.11-.25a1.939 1.939 0 0 0 .18-1.98l-5.95-12.75h2.26v-2h-3.19l-8-17.16a9.259 9.259 0 0 0 .19-1.84 9.016 9.016 0 0 0 -8-8.94v-1.06h3a1 1 0 0 0 1-1v-4a1 1 0 0 0 -1-1h-3v-1h-2v1h-3a1 1 0 0 0 -1 1v4a1 1 0 0 0 1 1h3v1.06a9.016 9.016 0 0 0 -8 8.94 9.259 9.259 0 0 0 .19 1.84l-8 17.16h-3.19v2h2.26l-5.95 12.75a1.939 1.939 0 0 0 .18 1.98l-.11.25a5.013 5.013 0 0 0 2.41 6.65 1.106 1.106 0 0 0 .43.09 1 1 0 0 0 .9-.57l1.82-3.89a2 2 0 0 0 1.63-1.13l7.52-16.13h5.91v2a2.006 2.006 0 0 0 2 2h2a2.006 2.006 0 0 0 2-2v-2h5.91l7.52 16.13a2 2 0 0 0 1.63 1.13l1.82 3.89a1 1 0 0 0 .9.57 1.106 1.106 0 0 0 .43-.09 5.013 5.013 0 0 0 2.41-6.65zm-26.62-47.98v-2h6v2zm3 5a7 7 0 1 1 -7 7 7.008 7.008 0 0 1 7-7zm-21.19 47.24a3.012 3.012 0 0 1 -.62-3.41l1.81.84zm2.94-3.96-3.62-1.69 14.05-30.14a9.237 9.237 0 0 0 2.97 3.12zm19.25-13.28h-2v-6h2zm2-4v-2a2.006 2.006 0 0 0 -2-2h-2a2.006 2.006 0 0 0 -2 2v2h-4.98l4.92-10.55a8.787 8.787 0 0 0 6.12 0l4.92 10.55zm16.29 16.8-1.04.49-13.4-28.72a9.237 9.237 0 0 0 2.97-3.12l14.05 30.14zm1.9 4.44-1.19-2.57 1.81-.84a3.012 3.012 0 0 1 -.62 3.41z"/></svg>