<svg id="Layer_1" enable-background="new 0 0 512 512" height="512" viewBox="0 0 512 512" width="512" xmlns="http://www.w3.org/2000/svg"><g><path d="m70 59.5h80v116h-80z" fill="#d67b42"/><path d="m120 59.5h30v116h-30z" fill="#be652b"/><path d="m64 29.5h92v30h-92z" fill="#f75632"/><path d="m126 29.5h30v30h-30z" fill="#e33629"/><path d="m458 460h-404v-268.891l202-155.109 202 155.097z" fill="#f3f3f3"/><g><path d="m428 168.063v291.937h30v-268.903z" fill="#e4e4e4"/></g><path d="m54 417.5v-196.99l404-.01v197z" fill="#bbf7ff"/><path d="m428 220.5h30v197h-30z" fill="#8bf0ff"/><path d="m489.5 490h-467c-8.284 0-15-6.716-15-15 0-8.284 6.716-15 15-15h467c8.284 0 15 6.716 15 15 0 8.284-6.716 15-15 15z" fill="#7be492"/><path d="m489.5 460h-30c8.284 0 15 6.716 15 15s-6.716 15-15 15h30c8.284 0 15-6.716 15-15s-6.716-15-15-15z" fill="#45d987"/><path d="m491.433 198.985-226.602-173.986c-5.208-3.999-12.454-3.999-17.662.001l-226.602 174c-6.352 4.877-7.547 13.98-2.669 20.332 2.855 3.718 7.158 5.668 11.511 5.668 3.081 0 6.188-.979 8.82-3l217.771-167.219 217.771 167.206c6.352 4.877 15.455 3.683 20.332-2.67 4.877-6.352 3.681-15.455-2.67-20.332z" fill="#f75632"/><path d="m392.203 335.754h-72.405c-8.725 0-15.797-7.073-15.797-15.797 0-14.886 12.068-26.954 26.954-26.954h50.092c14.886 0 26.954 12.068 26.954 26.954-.001 8.724-7.074 15.797-15.798 15.797z" fill="#be652b"/><path d="m211 346.5h60v71h-60z" fill="#ffca28"/><path d="m241 346.5h30v71h-30z" fill="#ffae08"/><path d="m211 385.334h-30v-13.834c0-13.807 11.193-25 25-25h5z" fill="#ffca28"/><path d="m301 385.334h-30v-38.834h5c13.807 0 25 11.193 25 25z" fill="#ffae08"/><path d="m241 346.5c-16.569 0-30-13.431-30-30v-30h60v30c0 16.569-13.431 30-30 30z" fill="#ffc39c"/><path d="m259.175 298.5h-36.351c-6.531 0-11.825-5.294-11.825-11.825 0-11.143 9.033-20.175 20.175-20.175h19.649c11.143 0 20.175 9.033 20.175 20.175.002 6.531-5.292 11.825-11.823 11.825z" fill="#bf6724"/><path d="m181 385.334h30v32.166h-30z" fill="#ffc39c"/><path d="m271 385.334h30v32.166h-30z" fill="#fdaa8e"/><path d="m181 417.5h-80v-36.492c0-12.176 9.87-22.046 22.046-22.046h35.908c12.176 0 22.046 9.87 22.046 22.046z" fill="#ffca28"/><path d="m151 358.962v58.538h30v-36.492c0-12.176-9.87-22.046-22.046-22.046z" fill="#ffae08"/><path d="m141.125 358.962h-.251c-13.738 0-24.875-11.137-24.875-24.875v-24.625h50v24.625c.001 13.738-11.136 24.875-24.874 24.875z" fill="#ffc39c"/><path d="m156.248 319.362h-30.495c-5.386 0-9.752-4.366-9.752-9.752v-.008c0-9.19 7.45-16.639 16.639-16.639h16.721c9.19 0 16.639 7.45 16.639 16.639v.008c0 5.385-4.366 9.752-9.752 9.752z" fill="#bf6724"/><path d="m331 346.5h50v71h-50z" fill="#f75632"/><path d="m356 346.5h25v71h-25z" fill="#e33629"/><path d="m331 385.334h-30v-13.834c0-13.807 11.193-25 25-25h5z" fill="#ffca28"/><path d="m411 385.334h-30v-38.834h5c13.807 0 25 11.193 25 25z" fill="#ffae08"/><path d="m356 346.5c-16.569 0-30-13.431-30-30v-30h60v30c0 16.569-13.431 30-30 30z" fill="#ffc39c"/><path d="m374.175 298.5h-36.351c-6.531 0-11.825-5.294-11.825-11.825 0-11.143 9.033-20.175 20.175-20.175h19.649c11.143 0 20.175 9.033 20.175 20.175.002 6.531-5.292 11.825-11.823 11.825z" fill="#bf6724"/><path d="m301 385.334h30v32.166h-30z" fill="#ffc39c"/><path d="m381 385.334h30v32.166h-30z" fill="#fdaa8e"/><circle cx="256" cy="148" fill="#bbf7ff" r="47"/><g><path d="m256 202.496c30.051 0 54.5-24.449 54.5-54.501s-24.449-54.501-54.5-54.501-54.5 24.449-54.5 54.501 24.449 54.501 54.5 54.501zm-38.657-46.382h31.157v30.658c-15.568-3.006-27.909-15.176-31.157-30.658zm46.157 30.658v-30.658h31.157c-3.248 15.482-15.589 27.652-31.157 30.658zm31.388-45.658h-31.388v-31.897c15.981 3.086 28.552 15.83 31.388 31.897zm-46.388-31.897v31.897h-31.388c2.836-16.067 15.407-28.811 31.388-31.897z"/><path d="m489.5 452.499h-24v-164.733c0-4.142-3.358-7.5-7.5-7.5s-7.5 3.358-7.5 7.5v122.233h-32v-38.501c0-13.042-7.725-24.307-18.837-29.478 9.197-3.118 15.837-11.828 15.837-22.066 0-14.305-8.888-27.042-22-32.125v-1.332c0-.06-.008-.118-.009-.177-.19-15.098-12.524-27.323-27.666-27.323h-19.649c-15.142 0-27.476 12.225-27.666 27.323-.001.06-.009.117-.009.177v1.319c-13.147 5.067-22 17.719-22 32.138 0 10.238 6.64 18.948 15.837 22.066-4.399 2.047-8.269 5.046-11.337 8.737-5.966-7.179-14.958-11.759-25-11.759h-5.02c4.719-6.272 7.52-14.065 7.52-22.5v-30c0-.06-.008-.118-.009-.177-.19-15.098-12.524-27.323-27.666-27.323h-19.649c-15.142 0-27.476 12.225-27.666 27.323-.001.06-.009.117-.009.177v30c0 8.436 2.801 16.228 7.52 22.5h-5.022c-12.876 0-24.028 7.528-29.285 18.413-2.725-2.056-5.815-3.65-9.155-4.669 3.735-5.277 5.94-11.711 5.94-18.654v-24.63c0-.048-.006-.095-.007-.143-.154-13.18-10.917-23.856-24.132-23.856h-16.721c-13.21 0-23.97 10.667-24.132 23.848-.001.051-.008.1-.008.151v24.63c0 6.943 2.204 13.377 5.94 18.654-12.107 3.694-20.94 14.965-20.94 28.265v28.993h-32v-181.994l389-.01v28c0 4.142 3.358 7.5 7.5 7.5s7.5-3.358 7.5-7.5v-30.908l3.704 2.844c4.662 3.579 10.436 5.128 16.264 4.364 5.827-.765 11.007-3.754 14.584-8.416 7.388-9.622 5.57-23.46-4.052-30.848l-85.779-65.863c-3.286-2.523-7.994-1.904-10.516 1.381s-1.904 7.994 1.381 10.516l85.779 65.863c3.061 2.351 3.64 6.754 1.289 9.816-1.139 1.483-2.786 2.434-4.64 2.677-1.856.244-3.691-.251-5.175-1.389l-217.771-167.207c-2.693-2.068-6.441-2.068-9.135 0l-217.771 167.221c-1.56 1.197-3.174 1.449-4.253 1.449-2.199 0-4.227-.998-5.563-2.737-1.139-1.483-1.632-3.321-1.388-5.174.243-1.854 1.194-3.502 2.677-4.641l226.602-174.003c2.51-1.927 6.017-1.927 8.526 0l115.446 88.641c3.285 2.523 7.994 1.904 10.516-1.381s1.904-7.994-1.381-10.516l-115.446-88.642c-7.889-6.058-18.908-6.057-26.797 0l-85.101 65.348v-17.548c3.423-.695 6-3.721 6-7.349v-30c0-4.142-3.358-7.5-7.5-7.5h-92c-4.142 0-7.5 3.358-7.5 7.5v30c0 3.628 2.577 6.654 6 7.349v90.496l-46.5 35.707c-4.661 3.579-7.649 8.759-8.415 14.585-.765 5.827.785 11.603 4.364 16.263 4.198 5.466 10.562 8.602 17.46 8.602 4.88 0 9.51-1.574 13.388-4.551l3.703-2.844v227.398h-24c-12.407 0-22.5 10.094-22.5 22.501s10.093 22.5 22.5 22.5h467c12.407 0 22.5-10.093 22.5-22.5s-10.093-22.501-22.5-22.501zm-347-369.505h-65v-16h65zm-65 15h62.285l-26.046 20h-36.239zm-6-61.001h77v15h-77zm6 96.001h16.704l-16.704 12.827zm261 277.005v-56.001h35v56.001zm-30 0v-17.167h15v17.167zm-30 0v-17.167h15v17.167zm-60 0v-56.001h45v56.001zm-30 0v-17.167h15v17.167zm149.325-104.002h36.351c1.489 0 2.932-.185 4.325-.505v11.006c0 12.407-10.093 22.5-22.5 22.5s-22.5-10.093-22.5-22.5v-11.006c1.392.32 2.835.505 4.324.505zm50.675 86.835h15v17.167h-15zm15-15h-15v-23.656c8.47 1.217 15 8.521 15 17.322zm-3-57.878c0 4.576-3.722 8.298-8.297 8.298h-.6c1.225-3.7 1.897-7.649 1.897-11.755v-11.476c4.321 3.617 7 9.036 7 14.933zm-54.325-45.957h19.649c6.971 0 12.643 5.657 12.673 12.622 0 .023.001.045.001.068-.008 2.378-1.944 4.31-4.323 4.31h-36.351c-2.38 0-4.315-1.932-4.323-4.31.001-.023.001-.045.001-.068.03-6.965 5.702-12.622 12.673-12.622zm-27.675 31.007v11.493c0 4.106.673 8.055 1.897 11.755h-.6c-4.575 0-8.297-3.722-8.297-8.298 0-5.946 2.674-11.348 7-14.95zm5 49.172v23.656h-15v-6.334c0-8.801 6.53-16.105 15-17.322zm-30 17.322v6.334h-15v-23.656c8.47 1.217 15 8.521 15 17.322zm-62.325-97.501h19.649c6.971 0 12.643 5.657 12.673 12.622 0 .023.001.045.001.068-.008 2.378-1.944 4.31-4.323 4.31h-36.351c-2.38 0-4.315-1.932-4.323-4.31.001-.023.001-.045.001-.068.03-6.965 5.702-12.622 12.673-12.622zm-12.675 42.5v-11.006c1.393.32 2.836.505 4.325.505h36.351c1.489 0 2.932-.185 4.325-.505v11.006c0 12.407-10.093 22.5-22.5 22.5s-22.501-10.093-22.501-22.5zm-30 55.001c0-8.801 6.53-16.105 15-17.322v23.656h-15zm-65-44.804c.739.097 1.487.164 2.252.164h30.495c.765 0 1.513-.067 2.252-.164v7.393c0 9.578-7.792 17.37-17.37 17.37h-.26c-9.578 0-17.37-7.792-17.37-17.37v-7.393zm9.14-26.236h16.721c5.04 0 9.14 4.1 9.14 9.148 0 1.242-1.01 2.252-2.252 2.252h-30.495c-1.242 0-2.252-1.01-2.252-2.26-.002-5.039 4.098-9.14 9.138-9.14zm-24.14 80.548c0-8.021 6.525-14.547 14.546-14.547h35.907c8.021 0 14.546 6.525 14.546 14.547v28.993h-65v-28.993zm147.5-316.775 193.751 148.765-387.499.01zm233.5 418.269h-467c-4.136 0-7.5-3.364-7.5-7.5s3.364-7.5 7.5-7.5h72.346c4.142 0 7.5-3.358 7.5-7.5s-3.358-7.5-7.5-7.5h-33.346v-27.5h389v27.5h-323.039c-4.142 0-7.5 3.358-7.5 7.5s3.358 7.5 7.5 7.5h362.039c4.136 0 7.5 3.364 7.5 7.5s-3.364 7.5-7.5 7.5z"/></g></g></svg>