<svg id="Capa_1" enable-background="new 0 0 512 512" height="512" viewBox="0 0 512 512" width="512" xmlns="http://www.w3.org/2000/svg"><g><g><path d="m39.6 446.026-29 29c-5.215 5.215-3.626 14.032 3.081 17.098l19.256 8.804c4.018 1.837 8.754.983 11.877-2.14l23.774-23.773 5.993-31.403z" fill="#6a647f"/><path d="m48.588 455.014-36.318 36.318c.444.291.908.562 1.411.792l19.256 8.804c4.018 1.837 8.754.983 11.877-2.14l23.774-23.773 1.898-9.945z" fill="#423e4f"/><path d="m55.024 393.679-15.424 52.347 28.988 28.988 52.348-15.423 9.526-75.439z" fill="#93ecea"/><path d="m107.571 387.043-6.635 52.548-52.348 15.423 20 20 52.348-15.423 9.526-75.439z" fill="#00d2ce"/><path d="m70.383 337.545h120.158v93.214h-120.158z" fill="#f9ee80" transform="matrix(.707 -.707 .707 .707 -233.425 204.766)"/><path d="m93.339 392.966h120.158v28.284h-120.158z" fill="#fdc072" transform="matrix(.707 -.707 .707 .707 -242.934 227.722)"/><path d="m493.809 35.096-14.291-14.291c-14.255-14.255-37.367-14.255-51.622 0l-66.356 66.357 65.912 65.912 66.357-66.357c14.255-14.255 14.255-37.367 0-51.621z" fill="#6a647f"/><path d="m493.809 35.096-14.291-14.291c-.965-.965-1.974-1.859-3.016-2.694 11.49 14.332 10.596 35.316-2.694 48.606l-66.357 66.357 20 20 66.357-66.357c14.256-14.255 14.256-37.367.001-51.621z" fill="#423e4f"/><path d="m371.733 217.584-63.683 91.732c-9.409 9.409-9.409 24.663 0 34.072s24.663 9.409 34.072 0c6.899-6.899 8.732-16.939 5.514-25.514l115.829-115.829c13.294-13.294 13.294-34.849 0-48.143z" fill="#f9ee80"/><path d="m463.466 117.06-65.912-65.912c-10.173-10.173-26.667-10.173-36.84 0l-247.966 247.966c-10.173 10.173-10.173 26.667 0 36.84l65.912 65.912c10.173 10.173 26.667 10.173 36.841 0l247.965-247.965c10.173-10.173 10.173-26.667 0-36.841z" fill="#93ecea"/><path d="m463.466 117.06-19.999-19.999c10.172 10.173 10.172 26.667-.001 36.84l-247.965 247.965c-10.173 10.173-26.667 10.173-36.841 0l20 20c10.173 10.173 26.667 10.173 36.841 0l247.965-247.965c10.173-10.173 10.173-26.667 0-36.841z" fill="#00d2ce"/><g><g fill="#ffa1ac"><ellipse cx="226.624" cy="308.442" rx="34.788" ry="27.703" transform="matrix(.707 -.707 .707 .707 -151.725 250.59)"/><ellipse cx="359.957" cy="175.109" rx="34.788" ry="27.703" transform="matrix(.707 -.707 .707 .707 -18.392 305.815)"/></g></g></g><g><path d="m206.749 259.886c-2.929 2.929-2.929 7.678 0 10.607l10.056 10.056c1.464 1.465 3.384 2.197 5.303 2.197 6.623 0 10.042-8.066 5.304-12.804l-10.056-10.056c-2.928-2.929-7.678-2.929-10.607 0z"/><path d="m332.079 175.883c2.929-2.929 2.929-7.678 0-10.607l-10.056-10.056c-2.929-2.929-7.678-2.929-10.607 0s-2.929 7.678 0 10.607l10.056 10.056c2.928 2.929 7.678 2.93 10.607 0z"/><path d="m260.859 228.928c-4.133-.28-7.713 2.837-7.996 6.969-.284 4.133 2.837 7.713 6.969 7.997 9.624.662 19.07-2.861 25.9-9.691 6.821-6.82 10.353-16.261 9.691-25.9-.284-4.133-3.862-7.247-7.996-6.969-4.133.283-7.253 3.863-6.969 7.996.365 5.312-1.579 10.512-5.333 14.265-3.754 3.754-8.954 5.697-14.266 5.333z"/><path d="m499.132 29.777-14.292-14.291c-17.157-17.158-45.074-17.158-62.231 0l-25.64 25.64c-12.856-8.093-30.18-6.663-41.548 4.705l-40.043 40.043c-2.929 2.929-2.929 7.678 0 10.607s7.678 2.929 10.607 0l40.043-40.043c7.249-7.249 18.984-7.251 26.236 0l65.915 65.915c7.233 7.233 7.233 19.002 0 26.235l-155.422 155.423c-.001.002-.003.004-.005.005l-40.466 40.466c-2.929 2.929-2.929 7.678 0 10.607 2.929 2.928 7.678 2.93 10.607 0l21.457-21.456c5.662 24.11 35.709 32.438 53.087 15.058 7.542-7.542 10.69-18.355 8.619-28.62l112.731-112.731c14.567-14.566 16.025-37.343 4.394-53.565 7.113-10.922 7.211-25.104.305-36.121l25.647-25.646c17.156-17.156 17.156-45.073-.001-62.231zm-40.952 166.957-115.835 115.835c-2.081 2.08-2.753 5.184-1.719 7.939 2.284 6.087.794 12.986-3.796 17.577-6.485 6.485-16.98 6.485-23.466 0-6.48-6.481-6.488-16.972-.005-23.461l147.295-147.295 2.067-2.067c5.48 10.069 3.967 22.964-4.541 31.472zm30.345-115.332-25.041 25.041-55.308-55.308 25.041-25.041c11.308-11.308 29.709-11.309 41.017 0l14.291 14.29c11.308 11.309 11.309 29.709 0 41.018z"/><path d="m10.558 498.954c17.667 7.613 20.258 10.428 26.739 10.428 4.711 0 9.366-1.83 12.818-5.282l22.424-22.424 50.501-14.88c1.211-.353 2.366-1.06 3.2-1.896l53.023-53.023c12.855 8.094 30.18 6.663 41.548-4.705l31.74-31.74c2.929-2.929 2.929-7.678 0-10.607s-7.678-2.929-10.607 0l-31.74 31.74c-7.25 7.25-18.984 7.25-26.235 0l-65.915-65.916c-7.25-7.249-7.25-18.983 0-26.235l187.201-187.201c2.929-2.929 2.929-7.678 0-10.607s-7.678-2.929-10.607 0l-187.203 187.203c-11.358 11.358-12.806 28.68-4.705 41.547l-53.023 53.023c-.921.921-1.575 2.1-1.895 3.199l-14.88 50.502-27.649 27.65c-8.906 8.903-6.187 23.987 5.265 29.224zm60.182-32.386-22.69-22.69 10.596-35.964 48.057 48.057zm42.009-120.007 55.308 55.308-47.12 47.121-55.308-55.308zm-96.85 133.775 23.697-23.697 18.382 18.383-18.471 18.471c-.904.904-2.292 1.154-3.456.623l-19.256-8.804c-1.954-.894-2.419-3.453-.896-4.976z"/></g></g></svg>