<svg id="Capa_1" enable-background="new 0 0 511.82 511.82" height="512" viewBox="0 0 511.82 511.82" width="512" xmlns="http://www.w3.org/2000/svg"><g><path d="m478.11 144.09c-9.324 26.709-42.233 32.759-62.2 18.81-20.188 14.062-52.913 7.794-62.2-18.81-1.18-3.36-1.11-7.03.17-10.35l48.04-124.15c4.947-12.762 23.037-12.754 27.98 0l48.04 124.15c1.28 3.32 1.35 6.99.17 10.35z" fill="#ffd321"/><path d="m415.91 162.9v-162.9c6.2 0 11.75 3.81 13.99 9.59l48.04 124.15c1.28 3.32 1.35 6.99.17 10.35-9.323 26.709-42.233 32.759-62.2 18.81z" fill="#ff8e00"/><path d="m478.95 139.15-.04 276.85c0 8.28-6.71 15-14.99 15-59.706.025-35.62.012-96.04.05-8.289 0-15.01-6.716-15.01-15v-276.9c0-7.32 5.28-13.57 12.49-14.79s14.26 2.94 16.67 9.85c.51 1.45 1.39 2.73 2.61 3.79 3.25 2.81 11.29 2.79 14.56-.05 1.19-1.04 2.07-2.32 2.6-3.79 2.15-5.94 7.79-9.9 14.11-9.9s11.96 3.96 14.11 9.9c.53 1.47 1.41 2.75 2.63 3.81 3.24 2.82 11.28 2.84 14.55.02 1.2-1.05 2.08-2.33 2.59-3.78 2.41-6.91 9.46-11.07 16.67-9.85s12.49 7.47 12.49 14.79z" fill="#fff16b"/><path d="m478.95 139.15-.04 276.85c0 8.28-6.71 15-14.99 15l-48.01.02v-306.76c6.32 0 11.96 3.96 14.11 9.9.53 1.47 1.41 2.75 2.63 3.81 3.24 2.82 11.28 2.84 14.55.02 1.2-1.05 2.08-2.33 2.59-3.78 2.41-6.91 9.46-11.07 16.67-9.85s12.49 7.47 12.49 14.79z" fill="#ffd321"/><path d="m478.91 416.05c0 49.191.06 45.547-.14 47.03-3.79 27.75-26.82 48.68-53.55 48.68-11.721.038-6.909.024-21.3.06-27.74 0-50.692-22.524-51.05-50.36v-45.41z" fill="#ffd321"/><path d="m415.91 416.05h63c0 49.191.06 45.547-.14 47.03-3.79 27.75-26.82 48.68-53.55 48.68l-9.31.03z" fill="#ff8e00"/><path d="m158.11 144.09c-9.324 26.709-42.233 32.759-62.2 18.81-20.188 14.062-52.913 7.794-62.2-18.81-1.18-3.36-1.11-7.03.17-10.35l48.04-124.15c4.947-12.762 23.037-12.754 27.98 0l48.04 124.15c1.28 3.32 1.35 6.99.17 10.35z" fill="#7873d5"/><path d="m95.91 162.9v-162.9c6.2 0 11.75 3.81 13.99 9.59l48.04 124.15c1.28 3.32 1.35 6.99.17 10.35-9.323 26.709-42.233 32.759-62.2 18.81z" fill="#5e54ac"/><path d="m158.95 139.15-.04 276.85c0 8.28-6.71 15-14.99 15-59.706.025-35.62.012-96.04.05-8.289 0-15.01-6.716-15.01-15v-276.9c0-7.32 5.28-13.57 12.49-14.79s14.26 2.94 16.67 9.85c.51 1.45 1.39 2.73 2.61 3.79 3.25 2.81 11.29 2.79 14.56-.05 1.19-1.04 2.07-2.32 2.6-3.79 2.15-5.94 7.79-9.9 14.11-9.9s11.96 3.96 14.11 9.9c.53 1.47 1.41 2.75 2.63 3.81 3.24 2.82 11.28 2.84 14.55.02 1.2-1.05 2.08-2.33 2.59-3.78 2.41-6.91 9.46-11.07 16.67-9.85s12.49 7.47 12.49 14.79z" fill="#b7b4e7"/><path d="m158.95 139.15-.04 276.85c0 8.28-6.71 15-14.99 15l-48.01.02v-306.76c6.32 0 11.96 3.96 14.11 9.9.53 1.47 1.41 2.75 2.63 3.81 3.24 2.82 11.28 2.84 14.55.02 1.2-1.05 2.08-2.33 2.59-3.78 2.41-6.91 9.46-11.07 16.67-9.85s12.49 7.47 12.49 14.79z" fill="#7873d5"/><path d="m158.91 416.05c0 49.191.06 45.547-.14 47.03-3.79 27.75-26.82 48.68-53.55 48.68-11.721.038-6.909.024-21.3.06-27.74 0-50.692-22.524-51.05-50.36v-45.41z" fill="#7873d5"/><path d="m95.91 416.05h63c0 49.191.06 45.547-.14 47.03-3.79 27.75-26.82 48.68-53.55 48.68l-9.31.03z" fill="#5e54ac"/><path d="m318.11 144.09c-9.324 26.709-42.233 32.759-62.2 18.81-20.188 14.062-52.913 7.794-62.2-18.81-1.18-3.36-1.11-7.03.17-10.35l48.04-124.15c4.947-12.762 23.037-12.754 27.98 0l48.04 124.15c1.28 3.32 1.35 6.99.17 10.35z" fill="#dc455b"/><path d="m255.91 162.9v-162.9c6.2 0 11.75 3.81 13.99 9.59l48.04 124.15c1.28 3.32 1.35 6.99.17 10.35-9.323 26.709-42.233 32.759-62.2 18.81z" fill="#bd2e4a"/><path d="m318.95 139.15-.04 276.85c0 8.28-6.71 15-14.99 15-59.706.025-35.62.012-96.04.05-8.289 0-15.01-6.716-15.01-15v-276.9c0-7.32 5.28-13.57 12.49-14.79s14.26 2.94 16.67 9.85c.51 1.45 1.39 2.73 2.61 3.79 3.25 2.81 11.29 2.79 14.56-.05 1.19-1.04 2.07-2.32 2.6-3.79 2.15-5.94 7.79-9.9 14.11-9.9s11.96 3.96 14.11 9.9c.53 1.47 1.41 2.75 2.63 3.81 3.24 2.82 11.28 2.84 14.55.02 1.2-1.05 2.08-2.33 2.59-3.78 2.41-6.91 9.46-11.07 16.67-9.85s12.49 7.47 12.49 14.79z" fill="#e27a4e"/><path d="m318.95 139.15-.04 276.85c0 8.28-6.71 15-14.99 15l-48.01.02v-306.76c6.32 0 11.96 3.96 14.11 9.9.53 1.47 1.41 2.75 2.63 3.81 3.24 2.82 11.28 2.84 14.55.02 1.2-1.05 2.08-2.33 2.59-3.78 2.41-6.91 9.46-11.07 16.67-9.85s12.49 7.47 12.49 14.79z" fill="#dc455b"/><path d="m318.91 416.05c0 49.191.06 45.547-.14 47.03-3.79 27.75-26.82 48.68-53.55 48.68-11.721.038-6.909.024-21.3.06-27.74 0-50.692-22.524-51.05-50.36v-45.41z" fill="#dc455b"/><path d="m255.91 416.05h63c0 49.191.06 45.547-.14 47.03-3.79 27.75-26.82 48.68-53.55 48.68l-9.31.03z" fill="#bd2e4a"/></g></svg>