<svg id="Layer_5" enable-background="new 0 0 64 64" height="512" viewBox="0 0 64 64" width="512" xmlns="http://www.w3.org/2000/svg"><g><g><g><path d="m54 34v2 8.17c0 1.81-.72 3.55-2 4.83s-3.02 2-4.83 2h-4.17v11h-22v-11h-4.17c-1.81 0-3.55-.72-4.83-2s-2-3.02-2-4.83v-8.17-2h6v2 7.22c0 .98.8 1.78 1.78 1.78.15 0 .29-.02.43-.05l7.79-1.95h12l7.79 1.95c.14.03.28.05.43.05.98 0 1.78-.8 1.78-1.78v-7.22-2z" fill="#75b1f2"/></g><g><path d="m37 39 1 4h-12l1-4z" fill="#5d9cec"/></g><g><path d="m12 14v10.18c-.43.14-.81.39-1.12.7-.54.54-.88 1.29-.88 2.12v7 2h-2c-1.1 0-2-.9-2-2v-28h6z" fill="#fcd770"/></g><g><path d="m24.74 36h-8.74v-2l1.12-1.12c.26-.26.46-.56.6-.88h.01 5.53c.28 1.41.78 2.76 1.48 4z" fill="#fcd770"/></g><g><path d="m48 34v2h-8.74c.7-1.24 1.2-2.59 1.48-4h5.54c.14.32.34.62.6.88z" fill="#fcd770"/></g><g><path d="m58 34c0 1.1-.9 2-2 2h-2v-2-7c0-1.31-.83-2.42-2-2.82v-10.18-8h6z" fill="#fcd770"/></g><g><path d="m38 2c-3.31 0-6 2.69-6 6 0-3.31-2.69-6-6-6h-14v4 8 10.18c.31-.12.65-.18 1-.18 1.66 0 3 1.34 3 3v1.18c.31-.12.65-.18 1-.18.55 0 1 .45 1 1v1.76c0 .43-.09.85-.27 1.24h5.53c-.17-.87-.26-1.76-.26-2.66v-2.18c0-1.89 1.21-3.56 3-4.16l.6-.8c1.31-1.74 3.26-2.87 5.4-3.13.33-.05.66-.07 1-.07 2.21 0 4.21.9 5.66 2.34 1.44 1.45 2.34 3.45 2.34 5.66v2.34c0 .9-.09 1.79-.26 2.66h5.54c-.19-.39-.28-.81-.28-1.24v-1.76c0-.55.45-1 1-1 .35 0 .69.06 1 .18v-1.18c0-.83.34-1.58.88-2.12s1.29-.88 2.12-.88c.35 0 .69.06 1 .18v-10.18-8-4z" fill="#e6e9ed"/></g><g><path d="m36 6h12v4h-12z" fill="#b4dd7f"/></g><g><path d="m16 28.18c.31-.12.65-.18 1-.18.55 0 1 .45 1 1v1.76c0 .43-.09.85-.27 1.24h-.01c-.14.32-.34.62-.6.88l-1.12 1.12h-6v-7c0-.83.34-1.58.88-2.12.31-.31.69-.56 1.12-.7.31-.12.65-.18 1-.18 1.66 0 3 1.34 3 3z" fill="#f0d0b4"/></g><g><path d="m54 34h-6l-1.12-1.12c-.26-.26-.46-.56-.6-.88-.19-.39-.28-.81-.28-1.24v-1.76c0-.55.45-1 1-1 .35 0 .69.06 1 .18v-1.18c0-.83.34-1.58.88-2.12s1.29-.88 2.12-.88c.35 0 .69.06 1 .18 1.17.4 2 1.51 2 2.82z" fill="#f0d0b4"/></g><g><path d="m41 27v2.34c0 .9-.09 1.79-.26 2.66-.28 1.41-.78 2.76-1.48 4-.6 1.09-1.36 2.1-2.26 3h-10c-.9-.9-1.66-1.91-2.26-3-.7-1.24-1.2-2.59-1.48-4-.17-.87-.26-1.76-.26-2.66v-2.18c0-1.89 1.21-3.56 3-4.16l.6-.8c1.31-1.74 3.26-2.87 5.4-3.13.33-.05.66-.07 1-.07 2.21 0 4.21.9 5.66 2.34 1.44 1.45 2.34 3.45 2.34 5.66z" fill="#656d78"/></g></g><g><path d="m53 5v-4h-15c-2.548 0-4.775 1.373-6 3.413-1.225-2.04-3.452-3.413-6-3.413h-15v4h-6v29c0 1.654 1.346 3 3 3h1v7.171c0 2.091.814 4.057 2.293 5.536 1.478 1.479 3.443 2.293 5.535 2.293h3.172v11h24v-11h3.172c2.092 0 4.058-.814 5.535-2.293 1.479-1.479 2.293-3.445 2.293-5.536v-7.171h1c1.654 0 3-1.346 3-3v-29zm-4.586 28-.828-.828c-.378-.379-.586-.881-.586-1.415v-1.757c1.103 0 2 .897 2 2h2c0-1.474-.81-2.75-2-3.444v-.556c0-1.103.897-2 2-2s2 .897 2 2v6zm-35.414-8c1.103 0 2 .897 2 2v.556c-1.19.694-2 1.97-2 3.444h2c0-1.103.897-2 2-2v1.757c0 .534-.208 1.036-.586 1.415l-.828.828h-4.586v-6c0-1.103.897-2 2-2zm4.828 8.586c.181-.181.34-.379.482-.586h4.165c.175.682.384 1.353.654 2h-6.129v-.586zm15.172-13.586c3.859 0 7 3.14 7 7v2.343c0 3.248-1.226 6.302-3.441 8.657h-9.118c-2.215-2.355-3.441-5.408-3.441-8.657v-2.181c0-1.46.931-2.752 2.316-3.213l.296-.099.787-1.05c1.316-1.753 3.409-2.8 5.601-2.8zm8.525 13h4.165c.141.207.3.405.481.586l.829.828v.586h-6.129c.27-.647.479-1.318.654-2zm-24.525 4h7.172c.496.806 1.074 1.566 1.729 2.274l-.732 2.93-7.197 1.771c-.494.129-.972-.261-.972-.756zm10.781 3h8.438l.507 2.026-9.446-.023zm11.043 2.175-.724-2.901c.655-.708 1.232-1.468 1.729-2.274h7.171v6.219c0 .494-.483.88-.971.757zm-.824-39.175h13v20c-2.206 0-4 1.794-4 4-1.103 0-2 .897-2 2v1.757c0 .082.019.161.024.243h-3.124c.061-.547.1-1.098.1-1.657v-2.343c0-4.962-4.037-9-9-9v-10c0-2.757 2.243-5 5-5zm-25 0h13c2.757 0 5 2.243 5 5v10.232c-2.055.473-3.917 1.657-5.2 3.369l-.423.563c-2.033.816-3.377 2.785-3.377 4.998v2.181c0 .558.039 1.11.101 1.657h-3.124c.004-.082.023-.16.023-.243v-1.757c0-1.103-.897-2-2-2 0-2.206-1.794-4-4-4zm-5 32c-.552 0-1-.449-1-1v-27h4v16.556c-1.19.694-2 1.97-2 3.444v8zm43.293 13.293c-1.101 1.101-2.564 1.707-4.121 1.707h-5.172v11h-20v-11h-5.172c-1.557 0-3.021-.606-4.121-1.707-1.101-1.101-1.707-2.565-1.707-4.122v-9.171h4v8.219c0 1.533 1.248 2.781 2.781 2.781.226 0 .451-.028.674-.083l7.668-1.917h11.754l7.669 1.917c.222.055.447.083.673.083 1.533 0 2.781-1.248 2.781-2.781v-8.219h4v9.171c0 1.557-.606 3.021-1.707 4.122zm5.707-14.293c0 .551-.448 1-1 1h-1v-8c0-1.474-.81-2.75-2-3.444v-16.556h4z"/><path d="m49 5h-14v6h14zm-2 4h-10v-2h10z"/><path d="m35 13h2v2h-2z"/><path d="m39 13h10v2h-10z"/><path d="m41 17h8v2h-8z"/><path d="m15 5h2v2h-2z"/><path d="m19 5h10v2h-10z"/><path d="m15 9h14v2h-14z"/><path d="m15 13h14v2h-14z"/><path d="m15 17h10v2h-10z"/></g></g></svg>